<svg width="722" height="533" viewBox="0 0 722 533" fill="none" xmlns="http://www.w3.org/2000/svg">
<path d="M466.349 11.3906H357.248V13.6172L388.42 61.117H524.24L484.904 21.039C480.748 13.9141 470.802 11.638 466.349 11.3906Z" fill="white"/>
<path d="M342.172 1H155.946C150.788 1 145.851 3.09762 142.27 6.81094L100.794 49.8193C97.2135 53.5326 92.2766 55.6303 87.1179 55.6303H48.0953H20C9.50659 55.6303 1 64.1368 1 74.6302V512.938C1 523.431 9.50659 531.938 20 531.938H702C712.493 531.938 721 523.431 721 512.938V74.6303C721 64.1368 712.493 55.6303 702 55.6303H408.955C403.628 55.6303 398.546 53.3942 394.947 49.467L356.18 7.16325C352.581 3.23608 347.499 1 342.172 1Z" fill="url(#paint0_linear_42_205)" stroke="#363636" stroke-width="1.5"/>
<path d="M358.605 10.6243H467.74C472.976 10.6243 477.98 12.7852 481.57 16.5967L518.25 55.5374" stroke="#363636" stroke-width="1.5"/>
<path d="M172.193 41.2654H173.193V39.2654H174.193V36.2654H175.193V32.2654H176.193V30.2654H175.193V28.2654H179.193V29.2654H178.193V32.2654H177.193V36.2654H176.193V39.2654H175.193V41.2654H176.193V42.2654H172.193V41.2654ZM169.193 38.2654H170.193V40.2654H169.193V42.2654H167.193V39.2654H166.193V35.2654H165.193V32.2654H164.193V29.2654H163.193V28.2654H166.193V31.2654H167.193V35.2654H168.193V39.2654H169.193V38.2654ZM174.193 30.2654H175.193V31.2654H174.193V30.2654ZM173.193 31.2654H174.193V33.2654H173.193V31.2654ZM163.193 32.2654H164.193V36.2654H163.193V32.2654ZM172.193 33.2654H173.193V35.2654H172.193V33.2654ZM171.193 35.2654H172.193V36.2654H171.193V35.2654ZM170.193 36.2654H171.193V38.2654H170.193V36.2654ZM162.193 36.2654H163.193V39.2654H162.193V36.2654ZM160.193 41.2654H161.193V39.2654H162.193V41.2654H163.193V42.2654H160.193V41.2654ZM186.193 39.2654H187.193V38.2654H188.193V36.2654H189.193V33.2654H186.193V32.2654H191.193V36.2654H190.193V39.2654H189.193V41.2654H190.193V42.2654H187.193V40.2654H186.193V39.2654ZM184.193 33.2654H186.193V34.2654H184.193V33.2654ZM181.193 41.2654H180.193V37.2654H181.193V35.2654H182.193V34.2654H184.193V35.2654H183.193V37.2654H182.193V40.2654H183.193V41.2654H185.193V42.2654H181.193V41.2654ZM190.193 40.2654H191.193V41.2654H190.193V40.2654ZM185.193 40.2654H186.193V41.2654H185.193V40.2654ZM198.2 39.2654H197.2V37.2654H196.2V35.2654H195.2V33.2654H194.2V32.2654H196.2V33.2654H197.2V35.2654H198.2V37.2654H199.2V39.2654H200.2V41.2654H199.2V42.2654H198.2V39.2654ZM200.2 32.2654H202.2V33.2654H203.2V36.2654H202.2V34.2654H200.2V32.2654ZM193.2 33.2654H194.2V34.2654H193.2V33.2654ZM192.2 34.2654H193.2V35.2654H192.2V34.2654ZM201.2 36.2654H202.2V38.2654H201.2V36.2654ZM200.2 38.2654H201.2V39.2654H200.2V38.2654ZM197.2 42.2654H198.2V43.2654H197.2V42.2654ZM196.2 43.2654H197.2V44.2654H196.2V43.2654ZM192.2 44.2654H194.2V45.2654H195.2V46.2654H192.2V44.2654ZM195.2 44.2654H196.2V45.2654H195.2V44.2654ZM210.193 39.2654H211.193V36.2654H212.193V33.2654H210.193V32.2654H213.193V29.2654H215.193V32.2654H217.193V33.2654H214.193V37.2654H213.193V39.2654H212.193V41.2654H213.193V42.2654H210.193V39.2654ZM213.193 40.2654H214.193V41.2654H213.193V40.2654ZM223.204 40.2654H224.204V38.2654H225.204V34.2654H224.204V33.2654H221.204V32.2654H225.204V33.2654H226.204V34.2654H227.204V38.2654H226.204V40.2654H225.204V41.2654H223.204V40.2654ZM218.204 40.2654H217.204V36.2654H218.204V34.2654H219.204V33.2654H221.204V34.2654H220.204V36.2654H219.204V40.2654H220.204V41.2654H223.204V42.2654H219.204V41.2654H218.204V40.2654ZM234.197 42.2654H235.197V39.2654H236.197V36.2654H237.197V32.2654H238.197V29.2654H237.197V28.2654H241.197V29.2654H240.197V32.2654H239.197V36.2654H238.197V39.2654H237.197V42.2654H236.197V44.2654H235.197V45.2654H233.197V44.2654H234.197V42.2654ZM231.197 45.2654H233.197V46.2654H231.197V45.2654ZM246.204 42.2654H243.204V41.2654H242.204V38.2654H243.204V35.2654H244.204V33.2654H243.204V32.2654H246.204V35.2654H245.204V38.2654H244.204V40.2654H245.204V41.2654H246.204V42.2654ZM249.204 39.2654H248.204V38.2654H249.204V37.2654H250.204V35.2654H251.204V32.2654H253.204V35.2654H252.204V38.2654H251.204V41.2654H252.204V42.2654H249.204V39.2654ZM243.204 34.2654H242.204V33.2654H243.204V34.2654ZM248.204 40.2654H247.204V39.2654H248.204V40.2654ZM247.204 41.2654H246.204V40.2654H247.204V41.2654ZM253.204 41.2654H252.204V40.2654H253.204V41.2654ZM255.212 39.2654H256.212V36.2654H257.212V33.2654H256.212V32.2654H259.212V35.2654H260.212V36.2654H259.212V37.2654H258.212V39.2654H257.212V42.2654H255.212V39.2654ZM262.212 39.2654H263.212V36.2654H264.212V34.2654H263.212V33.2654H262.212V32.2654H265.212V33.2654H266.212V36.2654H265.212V39.2654H264.212V41.2654H265.212V42.2654H262.212V39.2654ZM261.212 33.2654H262.212V34.2654H261.212V33.2654ZM255.212 33.2654H256.212V34.2654H255.212V33.2654ZM260.212 34.2654H261.212V35.2654H260.212V34.2654ZM265.212 40.2654H266.212V41.2654H265.212V40.2654ZM274.22 36.2654H275.22V33.2654H272.22V32.2654H276.22V33.2654H277.22V36.2654H276.22V37.2654H274.22V36.2654ZM269.22 40.2654H268.22V36.2654H269.22V34.2654H270.22V33.2654H272.22V34.2654H271.22V36.2654H270.22V38.2654H272.22V39.2654H270.22V40.2654H271.22V41.2654H274.22V42.2654H270.22V41.2654H269.22V40.2654ZM272.22 37.2654H274.22V38.2654H272.22V37.2654ZM276.22 39.2654H277.22V40.2654H276.22V39.2654ZM274.22 40.2654H276.22V41.2654H274.22V40.2654ZM289.216 37.2654H290.216V36.2654H291.216V33.2654H287.216V32.2654H292.216V33.2654H293.216V36.2654H292.216V37.2654H291.216V38.2654H289.216V37.2654ZM286.216 33.2654H287.216V34.2654H286.216V33.2654ZM285.216 34.2654H286.216V35.2654H287.216V37.2654H285.216V34.2654ZM287.216 38.2654H289.216V39.2654H287.216V38.2654ZM285.216 39.2654H287.216V40.2654H285.216V39.2654ZM291.216 39.2654H292.216V40.2654H291.216V39.2654ZM284.216 40.2654H285.216V41.2654H290.216V40.2654H291.216V42.2654H284.216V40.2654ZM298.212 32.2654H303.212V33.2654H304.212V34.2654H305.212V39.2654H304.212V40.2654H303.212V34.2654H302.212V33.2654H298.212V32.2654ZM297.212 33.2654H298.212V34.2654H297.212V33.2654ZM297.212 40.2654H298.212V41.2654H302.212V42.2654H297.212V41.2654H296.212V40.2654H295.212V35.2654H296.212V34.2654H297.212V40.2654ZM302.212 40.2654H303.212V41.2654H302.212V40.2654ZM312.204 37.2654H313.204V36.2654H314.204V33.2654H310.204V32.2654H315.204V33.2654H316.204V36.2654H315.204V37.2654H314.204V38.2654H312.204V37.2654ZM309.204 33.2654H310.204V34.2654H309.204V33.2654ZM308.204 34.2654H309.204V35.2654H310.204V37.2654H308.204V34.2654ZM310.204 38.2654H312.204V39.2654H310.204V38.2654ZM308.204 39.2654H310.204V40.2654H308.204V39.2654ZM314.204 39.2654H315.204V40.2654H314.204V39.2654ZM307.204 40.2654H308.204V41.2654H313.204V40.2654H314.204V42.2654H307.204V40.2654ZM323.201 34.2654H324.201V35.2654H323.201V34.2654ZM322.201 35.2654H323.201V36.2654H322.201V35.2654ZM321.201 36.2654H322.201V37.2654H321.201V36.2654ZM320.201 37.2654H321.201V38.2654H320.201V37.2654ZM319.201 38.2654H320.201V39.2654H319.201V38.2654ZM318.201 39.2654H319.201V40.2654H318.201V39.2654ZM317.201 40.2654H318.201V41.2654H323.201V40.2654H324.201V36.2654H325.201V34.2654H324.201V33.2654H325.201V32.2654H327.201V36.2654H326.201V40.2654H325.201V41.2654H327.201V42.2654H325.201V43.2654H324.201V45.2654H326.201V46.2654H321.201V45.2654H322.201V43.2654H323.201V42.2654H317.201V40.2654ZM327.201 40.2654H328.201V41.2654H327.201V40.2654Z" fill="#4A4A4A"/>
<defs>
<linearGradient id="paint0_linear_42_205" x1="361" y1="1" x2="361" y2="531.938" gradientUnits="userSpaceOnUse">
<stop offset="0.325" stop-color="white"/>
<stop offset="0.58" stop-color="#F4F4F4"/>
<stop offset="1" stop-color="#EDEDED"/>
</linearGradient>
</defs>
</svg>
