<svg width="722" height="533" viewBox="0 0 722 533" fill="none" xmlns="http://www.w3.org/2000/svg">
<path d="M466.349 11.3906H357.248V13.6172L388.42 61.117H524.24L484.904 21.039C480.748 13.9141 470.802 11.638 466.349 11.3906Z" fill="white"/>
<path d="M342.172 1H155.946C150.788 1 145.851 3.09762 142.27 6.81094L100.794 49.8193C97.2135 53.5326 92.2766 55.6303 87.1179 55.6303H48.0953H20C9.50659 55.6303 1 64.1368 1 74.6302V512.938C1 523.431 9.50659 531.938 20 531.938H702C712.493 531.938 721 523.431 721 512.938V74.6303C721 64.1368 712.493 55.6303 702 55.6303H408.955C403.628 55.6303 398.546 53.3942 394.947 49.467L356.18 7.16325C352.581 3.23608 347.499 1 342.172 1Z" fill="url(#paint0_linear_42_205)" stroke="#363636" stroke-width="1.5"/>
<path d="M358.605 10.6243H467.74C472.976 10.6243 477.98 12.7852 481.57 16.5967L518.25 55.5374" stroke="#363636" stroke-width="1.5"/>
<path d="M150.193 42.2654H151.193V39.2654H152.193V36.2654H153.193V32.2654H154.193V29.2654H153.193V28.2654H157.193V29.2654H156.193V32.2654H155.193V36.2654H154.193V39.2654H153.193V42.2654H152.193V44.2654H151.193V45.2654H149.193V44.2654H150.193V42.2654ZM147.193 45.2654H149.193V46.2654H147.193V45.2654ZM162.2 42.2654H159.2V41.2654H158.2V38.2654H159.2V35.2654H160.2V33.2654H159.2V32.2654H162.2V35.2654H161.2V38.2654H160.2V40.2654H161.2V41.2654H162.2V42.2654ZM165.2 39.2654H164.2V38.2654H165.2V37.2654H166.2V35.2654H167.2V32.2654H169.2V35.2654H168.2V38.2654H167.2V41.2654H168.2V42.2654H165.2V39.2654ZM159.2 34.2654H158.2V33.2654H159.2V34.2654ZM164.2 40.2654H163.2V39.2654H164.2V40.2654ZM163.2 41.2654H162.2V40.2654H163.2V41.2654ZM169.2 41.2654H168.2V40.2654H169.2V41.2654ZM171.208 39.2654H172.208V36.2654H173.208V32.2654H174.208V29.2654H172.208V28.2654H176.208V32.2654H175.208V36.2654H174.208V39.2654H173.208V41.2654H174.208V42.2654H171.208V39.2654ZM174.208 40.2654H175.208V41.2654H174.208V40.2654ZM183.2 39.2654H182.2V37.2654H181.2V35.2654H180.2V33.2654H179.2V32.2654H181.2V33.2654H182.2V35.2654H183.2V37.2654H184.2V39.2654H185.2V41.2654H184.2V42.2654H183.2V39.2654ZM185.2 32.2654H187.2V33.2654H188.2V36.2654H187.2V34.2654H185.2V32.2654ZM178.2 33.2654H179.2V34.2654H178.2V33.2654ZM177.2 34.2654H178.2V35.2654H177.2V34.2654ZM186.2 36.2654H187.2V38.2654H186.2V36.2654ZM185.2 38.2654H186.2V39.2654H185.2V38.2654ZM182.2 42.2654H183.2V43.2654H182.2V42.2654ZM181.2 43.2654H182.2V44.2654H181.2V43.2654ZM177.2 44.2654H179.2V45.2654H180.2V46.2654H177.2V44.2654ZM180.2 44.2654H181.2V45.2654H180.2V44.2654ZM195.193 39.2654H196.193V36.2654H197.193V33.2654H195.193V32.2654H198.193V29.2654H200.193V32.2654H202.193V33.2654H199.193V37.2654H198.193V39.2654H197.193V41.2654H198.193V42.2654H195.193V39.2654ZM198.193 40.2654H199.193V41.2654H198.193V40.2654ZM208.204 40.2654H209.204V38.2654H210.204V34.2654H209.204V33.2654H206.204V32.2654H210.204V33.2654H211.204V34.2654H212.204V38.2654H211.204V40.2654H210.204V41.2654H208.204V40.2654ZM203.204 40.2654H202.204V36.2654H203.204V34.2654H204.204V33.2654H206.204V34.2654H205.204V36.2654H204.204V40.2654H205.204V41.2654H208.204V42.2654H204.204V41.2654H203.204V40.2654ZM225.197 30.2654H226.197V32.2654H225.197V30.2654ZM224.197 32.2654H225.197V34.2654H224.197V32.2654ZM223.197 34.2654H224.197V36.2654H223.197V34.2654ZM223.197 37.2654H228.197V34.2654H227.197V30.2654H226.197V28.2654H228.197V30.2654H229.197V34.2654H230.197V38.2654H231.197V41.2654H233.197V42.2654H227.197V41.2654H229.197V38.2654H222.197V36.2654H223.197V37.2654ZM221.197 38.2654H222.197V40.2654H221.197V38.2654ZM218.197 41.2654H220.197V40.2654H221.197V41.2654H223.197V42.2654H218.197V41.2654ZM238.197 42.2654H235.197V41.2654H234.197V38.2654H235.197V35.2654H236.197V33.2654H235.197V32.2654H238.197V35.2654H237.197V38.2654H236.197V40.2654H237.197V41.2654H238.197V42.2654ZM241.197 39.2654H240.197V38.2654H241.197V37.2654H242.197V35.2654H243.197V32.2654H245.197V35.2654H244.197V38.2654H243.197V41.2654H244.197V42.2654H241.197V39.2654ZM235.197 34.2654H234.197V33.2654H235.197V34.2654ZM240.197 40.2654H239.197V39.2654H240.197V40.2654ZM239.197 41.2654H238.197V40.2654H239.197V41.2654ZM245.197 41.2654H244.197V40.2654H245.197V41.2654ZM250.204 38.2654H253.204V37.2654H254.204V33.2654H256.204V32.2654H258.204V34.2654H256.204V36.2654H255.204V38.2654H254.204V39.2654H250.204V38.2654ZM250.204 38.2654H248.204V35.2654H249.204V33.2654H250.204V32.2654H254.204V33.2654H251.204V34.2654H250.204V38.2654ZM246.204 43.2654H248.204V44.2654H249.204V45.2654H253.204V44.2654H254.204V42.2654H247.204V41.2654H246.204V39.2654H247.204V38.2654H248.204V41.2654H255.204V42.2654H256.204V44.2654H255.204V45.2654H254.204V46.2654H247.204V45.2654H246.204V43.2654ZM263.197 42.2654H260.197V41.2654H259.197V38.2654H260.197V35.2654H261.197V33.2654H260.197V32.2654H263.197V35.2654H262.197V38.2654H261.197V40.2654H262.197V41.2654H263.197V42.2654ZM266.197 39.2654H265.197V38.2654H266.197V37.2654H267.197V35.2654H268.197V32.2654H270.197V35.2654H269.197V38.2654H268.197V41.2654H269.197V42.2654H266.197V39.2654ZM260.197 34.2654H259.197V33.2654H260.197V34.2654ZM265.197 40.2654H264.197V39.2654H265.197V40.2654ZM264.197 41.2654H263.197V40.2654H264.197V41.2654ZM270.197 41.2654H269.197V40.2654H270.197V41.2654ZM272.204 41.2654H271.204V39.2654H273.204V41.2654H276.204V39.2654H275.204V37.2654H274.204V35.2654H273.204V33.2654H274.204V32.2654H279.204V33.2654H280.204V35.2654H278.204V33.2654H275.204V35.2654H276.204V37.2654H277.204V39.2654H278.204V41.2654H277.204V42.2654H272.204V41.2654ZM281.208 39.2654H282.208V36.2654H283.208V33.2654H281.208V32.2654H284.208V29.2654H286.208V32.2654H288.208V33.2654H285.208V37.2654H284.208V39.2654H283.208V41.2654H284.208V42.2654H281.208V39.2654ZM284.208 40.2654H285.208V41.2654H284.208V40.2654ZM299.216 37.2654H300.216V36.2654H301.216V33.2654H297.216V32.2654H302.216V33.2654H303.216V36.2654H302.216V37.2654H301.216V38.2654H299.216V37.2654ZM296.216 33.2654H297.216V34.2654H296.216V33.2654ZM295.216 34.2654H296.216V35.2654H297.216V37.2654H295.216V34.2654ZM297.216 38.2654H299.216V39.2654H297.216V38.2654ZM295.216 39.2654H297.216V40.2654H295.216V39.2654ZM301.216 39.2654H302.216V40.2654H301.216V39.2654ZM294.216 40.2654H295.216V41.2654H300.216V40.2654H301.216V42.2654H294.216V40.2654ZM308.212 32.2654H313.212V33.2654H314.212V34.2654H315.212V39.2654H314.212V40.2654H313.212V34.2654H312.212V33.2654H308.212V32.2654ZM307.212 33.2654H308.212V34.2654H307.212V33.2654ZM307.212 40.2654H308.212V41.2654H312.212V42.2654H307.212V41.2654H306.212V40.2654H305.212V35.2654H306.212V34.2654H307.212V40.2654ZM312.212 40.2654H313.212V41.2654H312.212V40.2654ZM322.204 37.2654H323.204V36.2654H324.204V33.2654H320.204V32.2654H325.204V33.2654H326.204V36.2654H325.204V37.2654H324.204V38.2654H322.204V37.2654ZM319.204 33.2654H320.204V34.2654H319.204V33.2654ZM318.204 34.2654H319.204V35.2654H320.204V37.2654H318.204V34.2654ZM320.204 38.2654H322.204V39.2654H320.204V38.2654ZM318.204 39.2654H320.204V40.2654H318.204V39.2654ZM324.204 39.2654H325.204V40.2654H324.204V39.2654ZM317.204 40.2654H318.204V41.2654H323.204V40.2654H324.204V42.2654H317.204V40.2654ZM333.201 34.2654H334.201V35.2654H333.201V34.2654ZM332.201 35.2654H333.201V36.2654H332.201V35.2654ZM331.201 36.2654H332.201V37.2654H331.201V36.2654ZM330.201 37.2654H331.201V38.2654H330.201V37.2654ZM329.201 38.2654H330.201V39.2654H329.201V38.2654ZM328.201 39.2654H329.201V40.2654H328.201V39.2654ZM327.201 40.2654H328.201V41.2654H333.201V40.2654H334.201V36.2654H335.201V34.2654H334.201V33.2654H335.201V32.2654H337.201V36.2654H336.201V40.2654H335.201V41.2654H337.201V42.2654H335.201V43.2654H334.201V45.2654H336.201V46.2654H331.201V45.2654H332.201V43.2654H333.201V42.2654H327.201V40.2654ZM337.201 40.2654H338.201V41.2654H337.201V40.2654Z" fill="#4A4A4A"/>
<defs>
<linearGradient id="paint0_linear_42_205" x1="361" y1="1" x2="361" y2="531.938" gradientUnits="userSpaceOnUse">
<stop offset="0.325" stop-color="white"/>
<stop offset="0.58" stop-color="#F4F4F4"/>
<stop offset="1" stop-color="#EDEDED"/>
</linearGradient>
</defs>
</svg>
