<svg width="722" height="533" viewBox="0 0 722 533" fill="none" xmlns="http://www.w3.org/2000/svg">
<path d="M466.349 11.3906H357.248V13.6172L388.42 61.117H524.24L484.904 21.039C480.748 13.9141 470.802 11.638 466.349 11.3906Z" fill="white"/>
<path d="M342.172 1H155.946C150.788 1 145.851 3.09762 142.27 6.81094L100.794 49.8193C97.2135 53.5326 92.2766 55.6303 87.1179 55.6303H48.0953H20C9.50659 55.6303 1 64.1368 1 74.6302V512.938C1 523.431 9.50659 531.938 20 531.938H702C712.493 531.938 721 523.431 721 512.938V74.6303C721 64.1368 712.493 55.6303 702 55.6303H408.955C403.628 55.6303 398.546 53.3942 394.947 49.467L356.18 7.16325C352.581 3.23608 347.499 1 342.172 1Z" fill="url(#paint0_linear_42_205)" stroke="#363636" stroke-width="1.5"/>
<path d="M358.605 10.6243H467.74C472.976 10.6243 477.98 12.7852 481.57 16.5967L518.25 55.5374" stroke="#363636" stroke-width="1.5"/>
<path d="M188.699 37.2654H189.699V36.2654H190.699V33.2654H186.699V32.2654H191.699V33.2654H192.699V36.2654H191.699V37.2654H190.699V38.2654H188.699V37.2654ZM185.699 33.2654H186.699V34.2654H185.699V33.2654ZM184.699 34.2654H185.699V35.2654H186.699V37.2654H184.699V34.2654ZM186.699 38.2654H188.699V39.2654H186.699V38.2654ZM184.699 39.2654H186.699V40.2654H184.699V39.2654ZM190.699 39.2654H191.699V40.2654H190.699V39.2654ZM183.699 40.2654H184.699V41.2654H189.699V40.2654H190.699V42.2654H183.699V40.2654ZM197.695 32.2654H202.695V33.2654H203.695V34.2654H204.695V39.2654H203.695V40.2654H202.695V34.2654H201.695V33.2654H197.695V32.2654ZM196.695 33.2654H197.695V34.2654H196.695V33.2654ZM196.695 40.2654H197.695V41.2654H201.695V42.2654H196.695V41.2654H195.695V40.2654H194.695V35.2654H195.695V34.2654H196.695V40.2654ZM201.695 40.2654H202.695V41.2654H201.695V40.2654ZM211.687 37.2654H212.687V36.2654H213.687V33.2654H209.687V32.2654H214.687V33.2654H215.687V36.2654H214.687V37.2654H213.687V38.2654H211.687V37.2654ZM208.687 33.2654H209.687V34.2654H208.687V33.2654ZM207.687 34.2654H208.687V35.2654H209.687V37.2654H207.687V34.2654ZM209.687 38.2654H211.687V39.2654H209.687V38.2654ZM207.687 39.2654H209.687V40.2654H207.687V39.2654ZM213.687 39.2654H214.687V40.2654H213.687V39.2654ZM206.687 40.2654H207.687V41.2654H212.687V40.2654H213.687V42.2654H206.687V40.2654ZM226.683 31.2654H227.683V32.2654H226.683V31.2654ZM220.683 32.2654H226.683V34.2654H221.683V35.2654H220.683V32.2654ZM218.683 45.2654H222.683V44.2654H223.683V43.2654H224.683V39.2654H223.683V38.2654H219.683V35.2654H220.683V37.2654H224.683V38.2654H225.683V39.2654H226.683V43.2654H225.683V44.2654H224.683V45.2654H223.683V46.2654H218.683V45.2654ZM218.683 38.2654H219.683V39.2654H218.683V38.2654ZM217.683 42.2654H219.683V44.2654H218.683V45.2654H217.683V42.2654ZM244.675 39.2654H245.675V40.2654H244.675V39.2654ZM234.675 41.2654H235.675V38.2654H236.675V35.2654H237.675V32.2654H238.675V29.2654H237.675V28.2654H247.675V31.2654H246.675V30.2654H245.675V29.2654H240.675V32.2654H239.675V35.2654H242.675V34.2654H243.675V37.2654H242.675V36.2654H238.675V38.2654H237.675V41.2654H243.675V40.2654H244.675V42.2654H234.675V41.2654ZM248.679 39.2654H249.679V36.2654H250.679V33.2654H249.679V32.2654H252.679V35.2654H253.679V36.2654H252.679V37.2654H251.679V39.2654H250.679V42.2654H248.679V39.2654ZM255.679 39.2654H256.679V36.2654H257.679V34.2654H256.679V33.2654H255.679V32.2654H258.679V33.2654H259.679V36.2654H258.679V39.2654H257.679V41.2654H258.679V42.2654H255.679V39.2654ZM254.679 33.2654H255.679V34.2654H254.679V33.2654ZM248.679 33.2654H249.679V34.2654H248.679V33.2654ZM253.679 34.2654H254.679V35.2654H253.679V34.2654ZM258.679 40.2654H259.679V41.2654H258.679V40.2654ZM261.687 39.2654H262.687V36.2654H263.687V33.2654H261.687V32.2654H264.687V29.2654H266.687V32.2654H268.687V33.2654H265.687V37.2654H264.687V39.2654H263.687V41.2654H264.687V42.2654H261.687V39.2654ZM264.687 40.2654H265.687V41.2654H264.687V40.2654ZM269.695 39.2654H270.695V36.2654H271.695V33.2654H270.695V32.2654H273.695V34.2654H274.695V35.2654H273.695V37.2654H272.695V39.2654H271.695V42.2654H269.695V39.2654ZM275.695 32.2654H277.695V33.2654H278.695V35.2654H276.695V33.2654H275.695V32.2654ZM274.695 33.2654H275.695V34.2654H274.695V33.2654ZM269.695 33.2654H270.695V34.2654H269.695V33.2654ZM282.695 28.2654H284.695V30.2654H282.695V28.2654ZM279.695 39.2654H280.695V36.2654H281.695V33.2654H280.695V32.2654H283.695V37.2654H282.695V39.2654H281.695V41.2654H282.695V42.2654H279.695V39.2654ZM279.695 33.2654H280.695V34.2654H279.695V33.2654ZM282.695 40.2654H283.695V41.2654H282.695V40.2654ZM291.691 36.2654H292.691V33.2654H289.691V32.2654H293.691V33.2654H294.691V36.2654H293.691V37.2654H291.691V36.2654ZM286.691 40.2654H285.691V36.2654H286.691V34.2654H287.691V33.2654H289.691V34.2654H288.691V36.2654H287.691V38.2654H289.691V39.2654H287.691V40.2654H288.691V41.2654H291.691V42.2654H287.691V41.2654H286.691V40.2654ZM289.691 37.2654H291.691V38.2654H289.691V37.2654ZM293.691 39.2654H294.691V40.2654H293.691V39.2654ZM291.691 40.2654H293.691V41.2654H291.691V40.2654ZM296.687 41.2654H295.687V39.2654H297.687V41.2654H300.687V39.2654H299.687V37.2654H298.687V35.2654H297.687V33.2654H298.687V32.2654H303.687V33.2654H304.687V35.2654H302.687V33.2654H299.687V35.2654H300.687V37.2654H301.687V39.2654H302.687V41.2654H301.687V42.2654H296.687V41.2654Z" fill="#4A4A4A"/>
<defs>
<linearGradient id="paint0_linear_42_205" x1="361" y1="1" x2="361" y2="531.938" gradientUnits="userSpaceOnUse">
<stop offset="0.325" stop-color="white"/>
<stop offset="0.58" stop-color="#F4F4F4"/>
<stop offset="1" stop-color="#EDEDED"/>
</linearGradient>
</defs>
</svg>
