<svg width="722" height="476" viewBox="0 0 722 476" fill="none" xmlns="http://www.w3.org/2000/svg">
<rect x="1.75" y="0.75" width="718.5" height="474.5" rx="18.25" fill="url(#paint0_linear_47_207)" stroke="#363636" stroke-width="1.5"/>
<path d="M1 41L350.474 293.961C354.636 296.974 360.255 297.002 364.448 294.032L721 41.3963" stroke="#363636" stroke-width="1.5"/>
<path d="M67.8673 414.016C67.6966 414.101 67.4619 414.144 67.1633 414.144C67.0566 414.144 66.8539 414.133 66.5553 414.112C66.2779 414.069 65.9899 414.027 65.6913 413.984C65.4139 413.941 65.1579 413.909 64.9233 413.888C64.6886 413.845 64.5606 413.824 64.5393 413.824C63.8993 413.824 63.0886 413.952 62.1073 414.208L62.5873 417.824C62.6939 418.827 62.7686 419.701 62.8113 420.448C62.8753 421.195 62.9073 421.824 62.9073 422.336C62.9073 422.507 62.9073 422.667 62.9073 422.816C62.9073 422.965 62.8966 423.093 62.8753 423.2C62.8966 423.499 62.9073 423.787 62.9073 424.064C62.9073 424.341 62.9073 424.597 62.9073 424.832C62.9073 425.621 62.8753 426.24 62.8113 426.688C62.7473 427.136 62.6513 427.477 62.5233 427.712C62.4166 427.925 62.2673 428.053 62.0753 428.096C61.9046 428.16 61.7019 428.192 61.4673 428.192C61.1473 428.192 60.9126 428.096 60.7633 427.904C60.6353 427.691 60.5499 427.445 60.5073 427.168C60.4646 426.869 60.4433 426.571 60.4433 426.272C60.4646 425.973 60.4753 425.728 60.4753 425.536C60.4753 425.109 60.5073 424.725 60.5713 424.384C60.6353 424.043 60.6673 423.723 60.6673 423.424C60.6673 423.36 60.6459 423.168 60.6033 422.848C60.5819 422.528 60.5499 422.112 60.5073 421.6C60.4859 421.088 60.4646 420.501 60.4433 419.84C60.4219 419.157 60.4113 418.432 60.4113 417.664C60.3473 416.555 60.1446 415.509 59.8033 414.528C59.3766 414.549 58.9499 414.581 58.5233 414.624C58.0966 414.645 57.6913 414.677 57.3073 414.72C56.9233 414.763 56.5819 414.816 56.2833 414.88C56.0059 414.944 55.7926 415.008 55.6432 415.072C54.8753 415.072 54.4913 414.741 54.4913 414.08C54.4913 413.803 54.6086 413.493 54.8433 413.152L60.0913 412.192L61.7873 412C62.2993 411.936 62.8006 411.904 63.2913 411.904C63.4833 411.904 63.5686 411.904 63.5473 411.904C63.5473 411.883 63.6326 411.883 63.8033 411.904C63.9953 411.904 64.3686 411.925 64.9233 411.968C65.4779 411.989 66.4059 412.043 67.7073 412.128C68.0059 412.299 68.1553 412.608 68.1553 413.056C68.1553 413.419 68.0593 413.739 67.8673 414.016ZM79.525 427.264C79.1197 427.541 78.0423 427.861 76.293 428.224L74.949 427.968C74.7783 427.904 74.469 427.744 74.021 427.488C73.5943 427.232 73.1463 426.859 72.677 426.368C72.229 425.877 71.8237 425.259 71.461 424.512C71.1197 423.765 70.949 422.88 70.949 421.856C70.949 421.024 71.1837 420.288 71.653 419.648C72.1223 418.987 72.837 418.283 73.797 417.536C74.309 417.408 74.8103 417.344 75.301 417.344C76.7303 417.344 78.0423 417.824 79.237 418.784C80.261 420.192 80.773 421.739 80.773 423.424C80.773 424.747 80.357 426.027 79.525 427.264ZM76.613 419.456C76.293 419.307 75.9517 419.232 75.589 419.232C75.333 419.232 75.0557 419.296 74.757 419.424C74.4797 419.552 74.213 419.744 73.957 420C73.7223 420.256 73.5303 420.587 73.381 420.992C73.2317 421.376 73.157 421.835 73.157 422.368C73.157 422.795 73.2103 423.221 73.317 423.648C73.445 424.075 73.6263 424.469 73.861 424.832C74.117 425.195 74.437 425.493 74.821 425.728C75.205 425.941 75.6637 426.048 76.197 426.048C76.6877 426.048 77.2423 425.92 77.861 425.664C78.3943 425.003 78.661 424.213 78.661 423.296C78.661 421.269 77.9783 419.989 76.613 419.456ZM89.857 414.56C89.857 414.88 89.6757 415.179 89.313 415.456C88.9503 415.712 88.609 415.84 88.289 415.84C87.713 415.84 87.1263 415.317 86.529 414.272C86.529 413.845 86.6357 413.493 86.849 413.216C87.0623 412.917 87.2863 412.64 87.521 412.384C87.713 412.405 87.937 412.427 88.193 412.448C88.449 412.469 88.6943 412.544 88.929 412.672C89.185 412.8 89.3983 413.013 89.569 413.312C89.761 413.611 89.857 414.027 89.857 414.56ZM89.921 424.672C89.921 425.013 89.761 425.28 89.441 425.472C89.1423 425.664 88.865 425.76 88.609 425.76C88.161 425.76 87.7983 425.707 87.521 425.6C87.265 425.493 87.073 425.355 86.945 425.184C86.817 425.013 86.7317 424.843 86.689 424.672C86.6463 424.48 86.625 424.299 86.625 424.128C86.625 423.723 86.7637 423.328 87.041 422.944C87.3183 422.56 87.6703 422.368 88.097 422.368C88.2463 422.368 88.4277 422.389 88.641 422.432C88.8543 422.453 89.057 422.549 89.249 422.72C89.441 422.869 89.601 423.104 89.729 423.424C89.857 423.723 89.921 424.139 89.921 424.672ZM116.754 410.688C117.01 410.88 117.138 411.115 117.138 411.392C117.138 411.627 116.935 412.043 116.53 412.64L114.098 412.896C114.119 413.024 114.151 413.269 114.194 413.632C114.237 413.995 114.279 414.411 114.322 414.88C114.386 415.328 114.439 415.808 114.482 416.32C114.546 416.832 114.599 417.312 114.642 417.76C114.685 418.187 114.717 418.56 114.738 418.88C114.781 419.179 114.802 419.349 114.802 419.392C114.802 419.733 114.791 420.16 114.77 420.672C114.77 421.163 114.759 421.749 114.738 422.432C114.567 423.413 114.322 424.288 114.002 425.056C113.682 425.803 113.266 426.432 112.754 426.944C112.242 427.456 111.623 427.84 110.898 428.096C110.194 428.373 109.351 428.512 108.37 428.512C107.666 428.512 107.09 428.416 106.642 428.224C106.194 428.032 105.97 427.691 105.97 427.2C105.97 426.645 106.29 426.315 106.93 426.208C107.335 426.293 107.687 426.357 107.986 426.4C108.306 426.443 108.583 426.464 108.818 426.464C109.522 426.464 110.205 426.187 110.866 425.632C111.527 425.077 111.965 424.331 112.178 423.392L112.37 421.12C112.413 420.715 112.445 420.363 112.466 420.064C112.487 419.744 112.498 419.467 112.498 419.232C112.498 419.168 112.498 419.104 112.498 419.04C112.498 418.976 112.487 418.848 112.466 418.656C112.466 418.464 112.455 418.187 112.434 417.824C112.413 417.461 112.391 416.939 112.37 416.256L111.954 413.28C111.613 413.429 110.941 413.504 109.938 413.504C109.511 413.504 109.181 413.419 108.946 413.248C108.711 413.056 108.562 412.725 108.498 412.256C108.605 412.021 109.202 411.669 110.29 411.2C110.759 411.179 111.879 411.019 113.65 410.72C113.714 410.741 113.842 410.752 114.034 410.752C114.098 410.752 114.237 410.741 114.45 410.72C114.663 410.699 114.887 410.677 115.122 410.656C115.357 410.635 115.581 410.613 115.794 410.592C116.007 410.571 116.146 410.56 116.21 410.56C116.487 410.56 116.669 410.603 116.754 410.688ZM131.838 416.288C131.859 416.523 131.87 416.747 131.87 416.96C131.891 417.173 131.902 417.397 131.902 417.632C131.902 418.144 131.881 418.581 131.838 418.944C131.795 419.285 131.742 419.68 131.678 420.128C131.614 420.555 131.529 421.088 131.422 421.728C131.337 422.347 131.251 423.179 131.166 424.224C131.166 424.288 131.155 424.352 131.134 424.416C131.134 424.459 131.134 424.512 131.134 424.576C131.134 424.917 131.166 425.291 131.23 425.696L131.358 426.88C131.358 427.435 131.006 427.712 130.302 427.712C130.003 427.712 129.779 427.637 129.63 427.488C129.481 427.317 129.374 427.125 129.31 426.912C129.246 426.677 129.214 426.443 129.214 426.208C129.214 425.952 129.214 425.739 129.214 425.568C129.214 425.355 129.225 425.195 129.246 425.088C128.734 425.6 128.275 426.005 127.87 426.304C127.486 426.581 127.123 426.784 126.782 426.912C126.462 427.04 126.142 427.115 125.822 427.136C125.523 427.157 125.203 427.168 124.862 427.168C123.71 427.168 122.825 426.848 122.206 426.208C121.609 425.568 121.31 424.619 121.31 423.36C121.31 423.211 121.31 423.04 121.31 422.848C121.31 422.656 121.321 422.432 121.342 422.176C121.321 422.091 121.31 421.952 121.31 421.76C121.31 421.483 121.321 421.227 121.342 420.992C121.363 420.736 121.406 420.437 121.47 420.096C121.555 419.733 121.662 419.296 121.79 418.784C121.939 418.251 122.131 417.568 122.366 416.736C122.601 416.501 122.867 416.384 123.166 416.384C123.443 416.384 123.678 416.459 123.87 416.608C124.062 416.757 124.158 416.981 124.158 417.28C124.158 417.387 124.115 417.611 124.03 417.952C123.966 418.293 123.891 418.667 123.806 419.072C123.721 419.477 123.635 419.883 123.55 420.288C123.486 420.672 123.454 420.971 123.454 421.184V421.344C123.411 421.643 123.369 421.92 123.326 422.176C123.305 422.432 123.294 422.645 123.294 422.816C123.294 423.477 123.422 424.053 123.678 424.544C123.955 425.013 124.467 425.248 125.214 425.248C125.705 425.248 126.163 425.141 126.59 424.928C127.017 424.715 127.401 424.459 127.742 424.16C128.083 423.84 128.382 423.499 128.638 423.136C128.894 422.752 129.086 422.4 129.214 422.08C129.257 421.675 129.331 421.195 129.438 420.64C129.545 420.064 129.683 419.403 129.854 418.656C129.833 418.528 129.822 418.4 129.822 418.272C129.822 418.144 129.822 418.027 129.822 417.92C129.822 417.664 129.833 417.408 129.854 417.152C129.897 416.875 129.95 416.64 130.014 416.448C130.099 416.235 130.217 416.064 130.366 415.936C130.515 415.787 130.718 415.712 130.974 415.712C131.443 415.712 131.731 415.904 131.838 416.288ZM145.094 424.512C145.03 425.131 144.806 425.717 144.422 426.272L143.27 427.904C143.078 428.075 142.78 428.213 142.374 428.32C141.969 428.448 141.553 428.544 141.126 428.608C140.721 428.693 140.348 428.757 140.006 428.8C139.686 428.843 139.516 428.864 139.494 428.864C139.281 428.864 139.004 428.821 138.662 428.736C138.342 428.672 138.022 428.597 137.702 428.512C137.382 428.427 137.105 428.341 136.87 428.256C136.636 428.192 136.508 428.16 136.486 428.16H136.454C136.22 428.139 135.964 428.085 135.686 428C135.43 427.915 135.174 427.808 134.918 427.68C134.684 427.552 134.492 427.413 134.342 427.264C134.172 427.093 134.086 426.912 134.086 426.72C134.086 426.485 134.204 426.251 134.438 426.016C134.673 425.76 134.908 425.632 135.142 425.632C137.297 426.485 139.014 426.912 140.294 426.912C140.764 426.912 141.158 426.816 141.478 426.624C141.82 426.432 142.076 426.229 142.246 426.016L142.918 424.8C142.918 424.523 142.833 424.245 142.662 423.968C142.513 423.691 142.3 423.445 142.022 423.232C141.766 422.997 141.468 422.795 141.126 422.624C140.785 422.453 140.433 422.336 140.07 422.272C139.665 422.208 139.249 422.091 138.822 421.92C138.417 421.749 138.033 421.547 137.67 421.312C137.329 421.077 137.041 420.821 136.806 420.544C136.593 420.245 136.476 419.925 136.454 419.584C136.433 419.584 136.412 419.179 136.39 418.368C136.433 418.048 136.476 417.792 136.518 417.6C136.561 417.408 136.657 417.237 136.806 417.088C136.956 416.917 137.18 416.736 137.478 416.544C137.798 416.352 138.246 416.075 138.822 415.712C138.993 415.691 139.302 415.669 139.75 415.648C140.22 415.605 140.849 415.541 141.638 415.456C141.98 415.456 142.854 415.712 144.262 416.224C144.476 416.416 144.582 416.704 144.582 417.088C144.582 417.749 144.358 418.08 143.91 418.08C143.889 418.08 143.868 418.08 143.846 418.08C143.825 418.059 143.793 418.048 143.75 418.048L142.598 417.664C142.022 417.493 141.532 417.408 141.126 417.408C140.529 417.408 140.049 417.44 139.686 417.504C139.345 417.568 139.089 417.653 138.918 417.76C138.748 417.845 138.63 417.941 138.566 418.048C138.502 418.155 138.46 418.251 138.438 418.336C138.438 418.4 138.428 418.464 138.406 418.528C138.406 418.571 138.406 418.624 138.406 418.688C138.406 419.52 138.748 420.032 139.43 420.224C142.801 420.907 144.689 422.336 145.094 424.512ZM157.208 416.192C157.379 416.32 157.464 416.565 157.464 416.928C157.464 417.568 157.197 417.888 156.664 417.888H156.536C156.536 417.888 156.376 417.909 156.056 417.952C155.757 417.973 155.416 418.005 155.032 418.048C154.648 418.091 154.275 418.144 153.912 418.208C153.571 418.251 153.368 418.293 153.304 418.336V418.656C153.304 418.891 153.283 419.211 153.24 419.616C153.197 420 153.176 420.352 153.176 420.672C153.176 420.779 153.176 420.885 153.176 420.992C153.197 421.099 153.219 421.205 153.24 421.312C153.155 421.568 153.112 421.995 153.112 422.592C153.133 423.403 153.155 424.011 153.176 424.416C153.197 424.8 153.261 425.088 153.368 425.28C153.475 425.472 153.656 425.621 153.912 425.728C154.168 425.835 154.541 425.995 155.032 426.208C155.544 426.379 155.8 426.677 155.8 427.104C155.8 427.381 155.693 427.616 155.48 427.808C155.288 428 155.032 428.096 154.712 428.096C154.563 428.096 154.339 428.064 154.04 428C153.741 427.936 153.432 427.851 153.112 427.744C152.813 427.616 152.536 427.477 152.28 427.328C152.024 427.157 151.853 426.976 151.768 426.784C151.512 426.229 151.309 425.696 151.16 425.184C151.011 424.651 150.936 424.096 150.936 423.52C150.936 422.923 150.947 422.475 150.968 422.176C150.989 421.877 151.011 421.643 151.032 421.472C151.053 421.301 151.075 421.152 151.096 421.024C151.117 420.875 151.128 420.672 151.128 420.416C151.128 420.245 151.117 420.075 151.096 419.904C151.096 419.712 151.096 419.531 151.096 419.36C151.096 419.125 151.096 418.933 151.096 418.784C151.117 418.613 151.139 418.475 151.16 418.368C150.584 418.411 149.731 418.581 148.6 418.88C148.259 418.88 147.96 418.795 147.704 418.624C147.448 418.453 147.32 418.208 147.32 417.888C147.32 417.803 147.352 417.685 147.416 417.536C147.48 417.387 147.587 417.248 147.736 417.12C147.907 416.971 148.131 416.853 148.408 416.768C148.707 416.661 149.069 416.608 149.496 416.608H149.688C150.157 416.608 150.701 416.512 151.32 416.32C151.32 416.299 151.32 416.213 151.32 416.064C151.341 415.893 151.352 415.712 151.352 415.52C151.373 415.307 151.384 415.104 151.384 414.912C151.405 414.72 151.416 414.581 151.416 414.496V414.336C151.437 414.101 151.48 413.771 151.544 413.344C151.608 412.896 151.704 412.459 151.832 412.032C151.96 411.584 152.12 411.2 152.312 410.88C152.525 410.56 152.781 410.4 153.08 410.4C153.656 410.4 154.008 410.656 154.136 411.168C154.136 411.211 154.104 411.36 154.04 411.616C153.997 411.872 153.944 412.16 153.88 412.48C153.816 412.8 153.752 413.109 153.688 413.408C153.624 413.707 153.592 413.899 153.592 413.984C153.592 414.027 153.581 414.144 153.56 414.336C153.539 414.528 153.517 414.741 153.496 414.976C153.496 415.211 153.485 415.445 153.464 415.68C153.443 415.915 153.432 416.085 153.432 416.192C153.389 416.192 153.677 416.16 154.296 416.096C154.403 416.096 154.499 416.096 154.584 416.096C154.691 416.075 154.787 416.064 154.872 416.064C154.936 416.064 154.989 416.075 155.032 416.096C155.075 416.096 155.117 416.096 155.16 416.096C155.352 416.075 155.533 416.064 155.704 416.064C155.875 416.043 156.035 416.032 156.184 416.032C156.653 416.032 156.995 416.085 157.208 416.192ZM164.462 413.408C164.462 413.771 164.398 414.069 164.27 414.304C164.163 414.517 164.014 414.677 163.822 414.784C163.63 414.891 163.416 414.965 163.182 415.008C162.968 415.029 162.755 415.04 162.542 415.04C162.243 414.827 161.987 414.592 161.774 414.336C161.582 414.059 161.486 413.792 161.486 413.536C161.486 413.344 161.571 413.131 161.742 412.896C161.912 412.64 162.062 412.395 162.19 412.16L163.662 412.288C164.195 412.416 164.462 412.789 164.462 413.408ZM163.374 418.048V418.176C163.374 418.368 163.342 418.688 163.278 419.136C163.235 419.563 163.16 420.128 163.054 420.832C163.075 420.939 163.086 421.088 163.086 421.28C163.086 421.408 163.043 421.696 162.958 422.144C162.872 422.592 162.83 422.976 162.83 423.296C162.83 423.36 162.83 423.424 162.83 423.488C162.851 423.552 162.862 423.605 162.862 423.648C162.798 423.947 162.766 424.373 162.766 424.928C162.766 425.163 162.766 425.419 162.766 425.696C162.787 425.952 162.808 426.229 162.83 426.528C162.659 427.147 162.328 427.456 161.838 427.456C161.411 427.456 161.112 427.232 160.942 426.784C160.792 426.315 160.718 425.707 160.718 424.96C160.718 424.213 160.739 423.531 160.782 422.912C160.846 422.293 160.92 421.717 161.006 421.184C161.091 420.629 161.176 420.107 161.262 419.616C161.368 419.104 161.464 418.603 161.55 418.112C161.763 417.792 162.062 417.632 162.446 417.632C162.851 417.632 163.16 417.771 163.374 418.048ZM179.639 424.608V424.864C179.639 424.971 179.639 425.184 179.639 425.504C179.661 425.803 179.639 426.112 179.575 426.432C179.511 426.752 179.394 427.04 179.223 427.296C179.074 427.552 178.829 427.68 178.487 427.68C177.869 427.68 177.495 427.435 177.367 426.944C177.389 426.773 177.399 426.592 177.399 426.4C177.421 426.187 177.431 425.963 177.431 425.728C177.431 425.323 177.41 424.864 177.367 424.352C177.346 423.84 177.314 423.275 177.271 422.656L177.015 421.12C176.93 420.608 176.791 420.213 176.599 419.936C176.407 419.637 176.194 419.424 175.959 419.296C175.725 419.147 175.479 419.061 175.223 419.04C174.989 418.997 174.786 418.976 174.615 418.976C173.975 418.976 173.431 419.168 172.983 419.552C172.535 419.915 172.162 420.64 171.863 421.728C171.842 422.091 171.81 422.485 171.767 422.912C171.746 423.339 171.693 423.808 171.607 424.32C171.65 425.088 171.714 426.069 171.799 427.264C171.799 427.925 171.426 428.256 170.679 428.256C170.381 428.256 170.146 428.171 169.975 428C169.826 427.829 169.709 427.616 169.623 427.36C169.559 427.083 169.517 426.795 169.495 426.496C169.474 426.197 169.463 425.92 169.463 425.664C169.463 425.429 169.474 425.195 169.495 424.96C169.517 424.725 169.549 424.48 169.591 424.224L169.879 420.928C169.901 420.693 169.933 420.437 169.975 420.16C170.039 419.883 170.114 419.573 170.199 419.232C170.135 418.763 169.943 418.208 169.623 417.568V417.44C169.623 417.205 169.73 416.981 169.943 416.768C170.178 416.555 170.445 416.448 170.743 416.448C171.042 416.448 171.287 416.555 171.479 416.768C171.671 416.96 171.917 417.291 172.215 417.76C172.386 417.611 172.663 417.472 173.047 417.344C173.453 417.195 173.911 417.12 174.423 417.12C175.575 417.12 176.567 417.365 177.399 417.856C178.231 418.347 178.765 419.221 178.999 420.48C179.063 420.971 179.117 421.376 179.159 421.696C179.202 421.995 179.245 422.283 179.287 422.56C179.351 422.816 179.405 423.104 179.447 423.424C179.511 423.723 179.575 424.117 179.639 424.608ZM195.532 426.72C194.849 427.403 194.049 427.989 193.132 428.48C192.214 428.971 191.276 429.216 190.316 429.216C189.91 429.216 188.982 429.067 187.532 428.768C187.148 428.512 186.742 428.192 186.316 427.808C185.889 427.424 185.494 426.987 185.132 426.496C184.79 425.984 184.502 425.451 184.268 424.896C184.054 424.32 183.948 423.723 183.948 423.104V423.136C183.969 422.944 183.99 422.72 184.012 422.464C184.033 422.229 184.054 421.963 184.076 421.664C184.097 421.344 184.129 420.971 184.172 420.544C184.598 419.861 185.036 419.189 185.484 418.528C185.953 417.867 186.636 417.28 187.532 416.768C188.897 416.448 189.921 416.288 190.604 416.288C190.924 416.288 191.201 416.309 191.436 416.352C191.692 416.373 191.926 416.448 192.14 416.576C192.374 416.683 192.598 416.832 192.812 417.024C193.046 417.216 193.324 417.472 193.644 417.792C193.878 418.048 194.06 418.24 194.188 418.368C194.316 418.475 194.412 418.56 194.476 418.624C194.54 418.688 194.572 418.741 194.572 418.784C194.572 418.827 194.572 418.891 194.572 418.976C194.572 419.744 194.486 420.363 194.316 420.832C194.166 421.301 193.868 421.685 193.42 421.984C192.993 422.283 192.396 422.549 191.628 422.784C190.86 422.997 189.868 423.243 188.652 423.52H188.46C188.076 423.52 187.393 423.605 186.411 423.776C187.18 426.037 188.406 427.168 190.092 427.168C191.286 427.168 192.641 426.56 194.156 425.344C194.305 425.216 194.497 425.152 194.732 425.152C195.393 425.152 195.724 425.472 195.724 426.112C195.724 426.325 195.66 426.528 195.532 426.72ZM192.46 419.552C191.884 418.592 191.233 418.112 190.508 418.112C190.188 418.112 189.846 418.155 189.484 418.24C189.121 418.325 188.769 418.443 188.428 418.592C188.108 418.741 187.798 418.923 187.5 419.136C187.222 419.349 186.988 419.595 186.796 419.872C186.71 420.043 186.625 420.288 186.54 420.608C186.476 420.928 186.39 421.312 186.284 421.76C186.86 421.653 187.489 421.579 188.172 421.536C188.876 421.493 189.537 421.408 190.156 421.28C190.796 421.152 191.329 420.96 191.756 420.704C192.182 420.448 192.417 420.064 192.46 419.552Z" fill="#4A4A4A"/>
<defs>
<linearGradient id="paint0_linear_47_207" x1="361" y1="0" x2="361" y2="476" gradientUnits="userSpaceOnUse">
<stop offset="0.6" stop-color="white"/>
<stop offset="1" stop-color="#E7E7E7"/>
</linearGradient>
</defs>
</svg>
